<svg xmlns="http://www.w3.org/2000/svg" viewBox="0 0 512 512">
  <rect width="512" height="512" rx="96" fill="#0f0f1a"/>

  <!-- 左上コーナー -->
  <rect x="48" y="48" width="148" height="148" rx="16" fill="#4ecca3"/>
  <rect x="72" y="72" width="100" height="100" rx="10" fill="#0f0f1a"/>
  <rect x="96" y="96" width="52" height="52" rx="6" fill="#4ecca3"/>

  <!-- 右上コーナー -->
  <rect x="316" y="48" width="148" height="148" rx="16" fill="#4ecca3"/>
  <rect x="340" y="72" width="100" height="100" rx="10" fill="#0f0f1a"/>
  <rect x="364" y="96" width="52" height="52" rx="6" fill="#4ecca3"/>

  <!-- 左下コーナー -->
  <rect x="48" y="316" width="148" height="148" rx="16" fill="#4ecca3"/>
  <rect x="72" y="340" width="100" height="100" rx="10" fill="#0f0f1a"/>
  <rect x="96" y="364" width="52" height="52" rx="6" fill="#4ecca3"/>

  <!-- 右下: ランダムドット -->
  <rect x="316" y="316" width="44" height="44" rx="8" fill="#4ecca3"/>
  <rect x="372" y="316" width="44" height="44" rx="8" fill="#4ecca3" opacity="0.4"/>
  <rect x="420" y="316" width="44" height="44" rx="8" fill="#4ecca3" opacity="0.7"/>
  <rect x="316" y="372" width="44" height="44" rx="8" fill="#4ecca3" opacity="0.5"/>
  <rect x="372" y="372" width="44" height="44" rx="8" fill="#e94560"/>
  <rect x="420" y="372" width="44" height="44" rx="8" fill="#4ecca3" opacity="0.4"/>
  <rect x="316" y="420" width="44" height="44" rx="8" fill="#4ecca3" opacity="0.7"/>
  <rect x="372" y="420" width="44" height="44" rx="8" fill="#4ecca3" opacity="0.4"/>
  <rect x="420" y="420" width="44" height="44" rx="8" fill="#4ecca3"/>
</svg>
