<svg xmlns="http://www.w3.org/2000/svg" viewBox="0 0 512 512">
  <rect width="512" height="512" rx="96" fill="#0f0f1a"/>

  <!-- 左上コーナー -->
  <rect x="56" y="56" width="148" height="148" rx="16" fill="#4ecca3"/>
  <rect x="80" y="80" width="100" height="100" rx="10" fill="#0f0f1a"/>
  <rect x="104" y="104" width="52" height="52" rx="6" fill="#4ecca3"/>

  <!-- 右上コーナー -->
  <rect x="308" y="56" width="148" height="148" rx="16" fill="#4ecca3"/>
  <rect x="332" y="80" width="100" height="100" rx="10" fill="#0f0f1a"/>
  <rect x="356" y="104" width="52" height="52" rx="6" fill="#4ecca3"/>

  <!-- 左下コーナー -->
  <rect x="56" y="308" width="148" height="148" rx="16" fill="#4ecca3"/>
  <rect x="80" y="332" width="100" height="100" rx="10" fill="#0f0f1a"/>
  <rect x="104" y="356" width="52" height="52" rx="6" fill="#4ecca3"/>

  <!-- センタードット -->
  <rect x="308" y="308" width="36" height="36" rx="6" fill="#4ecca3" opacity="0.5"/>
  <rect x="356" y="308" width="36" height="36" rx="6" fill="#4ecca3" opacity="0.5"/>
  <rect x="420" y="308" width="36" height="36" rx="6" fill="#4ecca3" opacity="0.5"/>
  <rect x="308" y="356" width="36" height="36" rx="6" fill="#4ecca3"/>
  <rect x="420" y="356" width="36" height="36" rx="6" fill="#4ecca3" opacity="0.5"/>
  <rect x="308" y="420" width="36" height="36" rx="6" fill="#4ecca3" opacity="0.5"/>
  <rect x="356" y="420" width="36" height="36" rx="6" fill="#4ecca3"/>
  <rect x="420" y="420" width="36" height="36" rx="6" fill="#4ecca3"/>

  <!-- GO テキスト -->
  <text x="204" y="300" text-anchor="middle" font-family="Arial Black, Impact, sans-serif" font-weight="900" font-size="128" fill="#e94560">GO</text>
</svg>
